<svg xmlns="http://www.w3.org/2000/svg" width="80" height="80" viewBox="0 0 80 80">
  <g id="best_price" data-name="best price" transform="translate(-426 -1425)">
    <rect id="Rectangle_603" data-name="Rectangle 603" width="55" height="55" transform="translate(465.143 1426) rotate(43)" fill="#ffc42e"/>
    <path id="Union_25" data-name="Union 25" d="M62.5,78.75v-2.5a1.25,1.25,0,0,1,2.5,0v2.5a1.25,1.25,0,0,1-2.5,0ZM35,75H21.252a1.308,1.308,0,0,1-.559-.129l-3.193-1.6v.479A1.246,1.246,0,0,1,16.25,75h-15a1.25,1.25,0,0,1,0-2.5H5v-15H1.25a1.251,1.251,0,0,1,0-2.5h17.5c.182-.01,1.25-.2,1.25-2.5V41.254A1.246,1.246,0,0,1,21.252,40a7.229,7.229,0,0,1,7.5,7.494v5h10a3.649,3.649,0,0,1,3.75,3.75A3.487,3.487,0,0,1,40.814,59.4a3.864,3.864,0,0,1,.438,1.85A3.479,3.479,0,0,1,39.566,64.4,3.887,3.887,0,0,1,40,66.25,3.489,3.489,0,0,1,38.316,69.4a3.867,3.867,0,0,1,.436,1.848A3.65,3.65,0,0,1,35.113,75C35.076,75,35.039,75,35,75ZM17.5,70.479,21.549,72.5H35a1.25,1.25,0,0,0-.016-2.5H33.752a1.25,1.25,0,0,1,0-2.5h2.5a1.25,1.25,0,0,0-.016-2.5H35a1.25,1.25,0,0,1,0-2.5h2.5a1.25,1.25,0,0,0-.016-2.5H36.252a1.25,1.25,0,0,1,0-2.5h2.5a1.251,1.251,0,0,0-.016-2.5H27.5a1.246,1.246,0,0,1-1.25-1.25V47.5a4.573,4.573,0,0,0-3.75-4.834V52.5c0,3.959-2.453,5-3.75,5H17.5ZM7.5,72.5H15v-15H7.5ZM66.25,75a1.25,1.25,0,0,1,0-2.5h2.5a1.25,1.25,0,0,1,0,2.5Zm-7.5,0a1.25,1.25,0,0,1,0-2.5h2.5a1.25,1.25,0,0,1,0,2.5ZM62.5,71.25v-2.5a1.25,1.25,0,0,1,2.5,0v2.5a1.25,1.25,0,0,1-2.5,0ZM10,70V67.5h2.5V70Zm37.5-3.75A1.246,1.246,0,0,1,48.754,65,28.749,28.749,0,1,0,20,36.254a1.251,1.251,0,0,1-2.5,0A31.25,31.25,0,1,1,48.754,67.5,1.246,1.246,0,0,1,47.5,66.25Zm0-3.75V60H50v2.5Zm6.188-2.986,2.416-.645.646,2.41-2.418.646Zm5.85-2.072,2.166-1.25,1.25,2.168-2.166,1.25ZM46.254,57.5A1.248,1.248,0,0,1,45,56.248V53.113A11.264,11.264,0,0,1,37.5,42.5a1.246,1.246,0,0,1,1.25-1.244h5A1.249,1.249,0,0,1,45,42.5a3.747,3.747,0,1,0,7.494,0c-.01-.4-.25-2.494-3.744-2.494C37.627,40,37.5,30.1,37.5,30A11.262,11.262,0,0,1,45,19.387V16.252A1.246,1.246,0,0,1,46.254,15h5a1.245,1.245,0,0,1,1.244,1.25v3.135A11.247,11.247,0,0,1,60,30a1.251,1.251,0,0,1-1.25,1.25h-5A1.255,1.255,0,0,1,52.5,30,3.747,3.747,0,1,0,45,30c.01.4.248,2.5,3.75,2.5C59.873,32.5,60,42.4,60,42.5a11.249,11.249,0,0,1-7.5,10.615v3.135A1.247,1.247,0,0,1,51.254,57.5Zm.313-6.523a1.253,1.253,0,0,1,.938,1.209V55H50V52.186a1.252,1.252,0,0,1,.932-1.209A8.747,8.747,0,0,0,57.5,42.5c0-.328-.172-7.5-8.744-7.5C43.8,35,42.5,31.732,42.5,30a6.248,6.248,0,0,1,12.371-1.25H57.41a8.754,8.754,0,0,0-6.469-7.232A1.24,1.24,0,0,1,50,20.314V17.5H47.5v2.813a1.246,1.246,0,0,1-.937,1.207A8.756,8.756,0,0,0,40,30c0,.3.162,7.5,8.752,7.5C53.7,37.5,55,40.775,55,42.5a6.247,6.247,0,0,1-12.369,1.25H40.092A8.733,8.733,0,0,0,46.566,50.977ZM64.66,53.932l1.766-1.771L68.2,53.932,66.426,55.7Zm4.031-4.725,1.25-2.16,2.166,1.25-1.248,2.16ZM71.369,43.6l.646-2.412,2.41.646-.645,2.418ZM72.5,37.5V35H75v2.5Zm-50,0V35H25v2.5ZM71.369,28.9l2.412-.645.645,2.41-2.41.645ZM23.074,30.664l.646-2.41,2.412.645-.646,2.41Zm2.318-6.453,1.25-2.166,2.166,1.25-1.25,2.166Zm43.3-.916,2.168-1.25,1.248,2.16-2.166,1.25ZM64.66,18.576,66.426,16.8,68.2,18.576,66.426,20.34Zm-35.352,0L31.074,16.8l1.766,1.773L31.074,20.34Zm30.232-3.516,1.25-2.168,2.166,1.25-1.25,2.168Zm-25-.918,2.168-1.25,1.25,2.168-2.168,1.25Zm19.148-1.158.645-2.408,2.418.645-.646,2.416ZM40.754,11.221l2.41-.645.646,2.408-2.412.652ZM47.5,12.5V10H50v2.5ZM15,11.252v-2.5a1.25,1.25,0,0,1,2.5,0v2.5a1.25,1.25,0,0,1-2.5,0ZM18.752,7.5a1.25,1.25,0,1,1,0-2.5h2.5a1.25,1.25,0,0,1,0,2.5Zm-7.5,0a1.25,1.25,0,0,1,0-2.5h2.5a1.25,1.25,0,0,1,0,2.5ZM15,3.752v-2.5a1.25,1.25,0,1,1,2.5,0v2.5a1.25,1.25,0,0,1-2.5,0Z" transform="translate(426 1425)" fill="#112327"/>
  </g>
</svg>
