<svg xmlns="http://www.w3.org/2000/svg" width="77.734" height="80" viewBox="0 0 77.734 80">
  <g id="contract" transform="translate(-524.633 -1425)">
    <rect id="Rectangle_604" data-name="Rectangle 604" width="55" height="55" transform="translate(562.143 1426) rotate(43)" fill="#ffc42e"/>
    <path id="Union_24" data-name="Union 24" d="M47.109,80V77.328H57.774A1.33,1.33,0,0,0,59.108,76V60h2.665V76a4,4,0,0,1-4,4ZM9.779,80a4,4,0,0,1-4-4V54.666H8.445V76a1.329,1.329,0,0,0,1.333,1.333H27.108V80Zm27.85-1.432-1.417-1.417a4,4,0,0,1-6.8-2.622,3.926,3.926,0,0,1-3.76-3.76A3.937,3.937,0,0,1,21.87,67,3.968,3.968,0,0,1,18.476,61.3l-5.832-5.831L9.817,52.646a1.331,1.331,0,0,1-1.884,0L.391,45.1a1.329,1.329,0,0,1,0-1.883L15.478,28.133a1.338,1.338,0,0,1,1.882,0L24.9,35.677a1.344,1.344,0,0,1,0,1.888L27.341,40h5.1a1.336,1.336,0,0,1,.939.393l3.9,3.9,2.039-.407,2.549-2.543-.944-.946a1.344,1.344,0,0,1,0-1.888l7.543-7.536a1.367,1.367,0,0,1,1.882,0L67.326,47.929l.007.012a1.337,1.337,0,0,1,0,1.881L59.79,57.366a1.336,1.336,0,0,1-1.888,0l-.938-.946L53.191,60.2,54.6,61.61a3.981,3.981,0,0,1-2.616,6.8A3.942,3.942,0,0,1,48.21,72.18a3.932,3.932,0,0,1-3.767,3.771,3.984,3.984,0,0,1-6.814,2.617Zm.055-5.593a1.33,1.33,0,0,0-.055,1.82l1.888,1.895a1.357,1.357,0,0,0,1.882,0,1.333,1.333,0,0,0,.389-.951A1.312,1.312,0,0,0,41.4,74.8l-1.888-1.883a1.337,1.337,0,0,0-1.828.063Zm-3.365,2.3.4-.4a3.947,3.947,0,0,1,3.645-4.991,3.869,3.869,0,0,1,3.765-3.735A3.95,3.95,0,0,1,45.9,62.342a3.964,3.964,0,0,1,5.01-3.637l.4-.4L39.555,46.551l4.676,4.682a4,4,0,0,1,0,5.656,4.1,4.1,0,0,1-5.654,0l-4.81-4.813a6.526,6.526,0,0,1-3.721,1.078l-8.915,8.921a1.333,1.333,0,0,0,0,1.888,1.367,1.367,0,0,0,1.882,0l3.77-3.77,1.89,1.881L24.9,65.847a1.331,1.331,0,0,0,1.882,1.883l3.772-3.771,1.889,1.883-3.777,3.775a1.334,1.334,0,0,0,1.866,1.9l.012-.015,2.748-2.74,1.034-1.033,1.882,1.895-1.027,1.022-2.739,2.745-.017.01a1.333,1.333,0,0,0,.017,1.867,1.279,1.279,0,0,0,.932.384A1.315,1.315,0,0,0,34.317,75.28ZM41.4,69.141a1.343,1.343,0,0,0,0,1.888l1.889,1.883a1.332,1.332,0,0,0,1.883-1.883l-1.888-1.888a1.34,1.34,0,0,0-1.884,0Zm3.772-3.765a1.327,1.327,0,0,0,0,1.883l1.882,1.881a1.366,1.366,0,0,0,1.89,0,1.335,1.335,0,0,0,0-1.881l-1.89-1.883a1.315,1.315,0,0,0-.938-.393A1.333,1.333,0,0,0,45.171,65.376ZM48.943,61.6a1.335,1.335,0,0,0,0,1.89l1.882,1.888a1.345,1.345,0,0,0,1.888,0h-.006a1.333,1.333,0,0,0,0-1.888L50.825,61.6a1.334,1.334,0,0,0-1.882,0ZM15.478,54.534l4.715,4.715,6.827-6.838a6.716,6.716,0,0,1-1.644-1.177l1.882-1.883a4,4,0,0,0,5.654,0,1.336,1.336,0,0,1,1.888,0L40.455,55a1.363,1.363,0,0,0,1.89,0,1.335,1.335,0,0,0,0-1.888L31.89,42.669H27.341ZM41.872,45.1,53.185,56.415l1.883-1.881L43.754,43.218Zm1.882-5.653L58.841,54.534,64.5,48.874,49.414,33.793ZM11.7,50.762l1.887,1.883L24.9,41.337,23.02,39.449Zm-8.482-6.6,5.66,5.653,13.2-13.2-5.66-5.658Zm55.889-6.833V16h-8a4,4,0,0,1-4-4V2.667H9.779A1.333,1.333,0,0,0,8.445,4V32H5.778V4a4,4,0,0,1,4-4H48.443a1.34,1.34,0,0,1,.994.445l12,13.375a1.31,1.31,0,0,1,.339.888V37.331ZM49.776,12a1.332,1.332,0,0,0,1.332,1.331h6.311L49.776,4.823ZM24.441,32V29.333h20V32Zm-2.666-8V21.335h32V24Zm-8,0V21.335H19.11V24Zm0-8V13.336h16V16Zm5.333-5.33V8.005H29.78v2.665Zm-5.333,0V8.005h2.666v2.665Z" transform="translate(529.808 1425)" fill="#112327"/>
  </g>
</svg>
