<svg xmlns="http://www.w3.org/2000/svg" width="77.734" height="80" viewBox="0 0 77.734 80">
  <g id="easy_customer_experience" data-name="easy customer experience" transform="translate(-627.633 -1425)">
    <rect id="Rectangle_605" data-name="Rectangle 605" width="55" height="55" transform="translate(665.143 1426) rotate(43)" fill="#ffc42e"/>
    <path id="Union_23" data-name="Union 23" d="M35.772,79.979l-4.148-.724A33.264,33.264,0,0,1,4,46.417V29.336H0V26.664H9.332V21.321a7.159,7.159,0,0,1-.995-.923,5.322,5.322,0,1,1-5.323-9.181,5.284,5.284,0,0,1-.35-1.883A5.371,5.371,0,0,1,8.17,4,5.333,5.333,0,0,1,18.5,4,5.346,5.346,0,0,1,24,9.334a5.284,5.284,0,0,1-.35,1.883A5.321,5.321,0,1,1,18.331,20.4a6.944,6.944,0,0,1-.995.923v5.344h9.937L41.55,4.613a1.327,1.327,0,0,1,2.238,0L49.149,12.9l3.1-4.338a1.381,1.381,0,0,1,2.171,0l12.932,18.1H72v2.672H68V46.417A33.264,33.264,0,0,1,40.377,79.255l-4.148.724A1.624,1.624,0,0,1,36,80,1.6,1.6,0,0,1,35.772,79.979ZM6.666,46.417A30.619,30.619,0,0,0,32.078,76.636L36,77.312l3.922-.686a30.6,30.6,0,0,0,25.413-30.21V29.336H6.666ZM42.594,26.664H64.074L53.33,11.628Zm-12.143,0h8.866l8.165-11.433L42.666,7.789ZM12,26.664h2.667V22.532a6.808,6.808,0,0,1-2.667,0ZM8.675,17.016a1.318,1.318,0,0,1,1.085.74,3.971,3.971,0,0,0,7.149,0,1.33,1.33,0,0,1,2.271-.2,2.66,2.66,0,1,0,2.333-4.206,1.33,1.33,0,0,1-.888-2.227A2.653,2.653,0,0,0,18.67,6.666a2.613,2.613,0,0,0-.905.172,1.33,1.33,0,0,1-1.789-1.332c.005-.032.023-.178.023-.211a2.667,2.667,0,0,0-5.333.039c.005.033.023.141.023.172a1.35,1.35,0,0,1-.534,1.151,1.325,1.325,0,0,1-1.25.181A2.635,2.635,0,0,0,8,6.666a2.653,2.653,0,0,0-1.955,4.461,1.331,1.331,0,0,1-.889,2.227,2.658,2.658,0,0,0,.178,5.31,2.643,2.643,0,0,0,2.155-1.1,1.325,1.325,0,0,1,1.078-.55A.767.767,0,0,1,8.675,17.016ZM28.373,63.4,30.3,61.541a7.859,7.859,0,0,0,11.414,0L43.625,63.4a10.529,10.529,0,0,1-15.253,0Zm12-20,1.916-1.851a7.855,7.855,0,0,0,11.415-.005L55.624,43.4a10.519,10.519,0,0,1-15.247,0Zm-24,0,1.918-1.851a7.861,7.861,0,0,0,11.415,0L31.628,43.4a10.527,10.527,0,0,1-15.254,0ZM60,34.669V32h2.665v2.667Zm-5.333,0V32h2.667v2.667Zm-5.338,0V32H52v2.667ZM28,6.666a4,4,0,0,0-4-4V0a6.651,6.651,0,0,1,5.333,2.705A6.638,6.638,0,0,1,34.666,0V2.667a4,4,0,0,0-4,4Z" transform="translate(630.613 1425)" fill="#112327"/>
  </g>
</svg>
