<svg xmlns="http://www.w3.org/2000/svg" xmlns:xlink="http://www.w3.org/1999/xlink" width="248" height="58" viewBox="0 0 248 58">
  <defs>
    <filter id="Path_2310" x="7" y="0" width="234" height="58" filterUnits="userSpaceOnUse">
      <feOffset dy="2" input="SourceAlpha"/>
      <feGaussianBlur stdDeviation="3" result="blur"/>
      <feFlood flood-opacity="0.149"/>
      <feComposite operator="in" in2="blur"/>
      <feComposite in="SourceGraphic"/>
    </filter>
  </defs>
  <g id="ExpertCertified" transform="translate(8018 2442)">
    <g id="Path_2308" data-name="Path 2308" transform="translate(-8018 -2419)" fill="#112327">
      <path d="M 31.5 31.5 L 0.7819147109985352 31.5 L 7.787199974060059 16.34309959411621 L 7.883349895477295 16.13507080078125 L 7.788509845733643 15.92642974853516 L 0.7764980792999268 0.5 L 31.5 0.5 L 31.5 31.5 Z" stroke="none"/>
      <path d="M 1.553007125854492 1 L 8.24370002746582 15.71953010559082 L 8.433370590209961 16.13679885864258 L 8.241069793701172 16.55286979675293 L 1.56382942199707 31 L 31 31 L 31 1 L 1.553007125854492 1 M 0 0 L 32 0 L 32 32 L 0 32 L 7.333330154418945 16.13333129882813 L 0 0 Z" stroke="none" fill="#ffc42e"/>
    </g>
    <g id="Path_2309" data-name="Path 2309" transform="translate(-7802 -2419)" fill="#112327">
      <path d="M 31.21808433532715 31.5 L 0.5 31.5 L 0.5 0.5 L 31.22350120544434 0.5 L 24.21149063110352 15.92642974853516 L 24.11664962768555 16.13507080078125 L 24.21279907226563 16.34309959411621 L 31.21808433532715 31.5 Z" stroke="none"/>
      <path d="M 1 1 L 1 31 L 30.43617057800293 31 L 23.75893020629883 16.55286979675293 L 23.56663131713867 16.13679885864258 L 23.75629997253418 15.71953010559082 L 30.44699478149414 1 L 1 1 M 0 0 L 32 0 L 24.66666984558105 16.13333129882813 L 32 32 L 0 32 L 0 0 Z" stroke="none" fill="#ffc42e"/>
    </g>
    <g transform="matrix(1, 0, 0, 1, -8018, -2442)" filter="url(#Path_2310)">
      <g id="Path_2310-2" data-name="Path 2310" transform="translate(16 7)" fill="#112327">
        <path d="M 215.5 39.5 L 0.5000076293945313 39.5 L 0.5000076293945313 0.5 L 215.5 0.5 L 215.5 39.5 Z" stroke="none"/>
        <path d="M 1.000015258789063 1 L 1.000015258789063 39 L 215 39 L 215 1 L 1.000015258789063 1 M 1.52587890625e-05 0 L 216 0 L 216 40 L 1.52587890625e-05 40 L 1.52587890625e-05 0 Z" stroke="none" fill="#ffc42e"/>
      </g>
    </g>
    <path id="Path_2311" data-name="Path 2311" d="M-154.746-11.682h7.524v1.836h-5.4v3.078h5.058v1.836h-5.058v3.078h5.4V0h-7.524ZM-134.172,0h-2.664l-3.078-4.14L-142.65,0h-2.592l4.122-5.814-4.14-5.868h2.61L-139.7-7.47l2.556-4.212h2.574L-138.51-5.85Zm6.372-11.682a4.551,4.551,0,0,1,3.087.963,3.454,3.454,0,0,1,1.107,2.754,3.454,3.454,0,0,1-1.107,2.754,4.551,4.551,0,0,1-3.087.963h-1.98V0h-2.142V-11.682Zm0,5.58a1.985,1.985,0,0,0,1.494-.522,1.851,1.851,0,0,0,.5-1.341,1.882,1.882,0,0,0-.5-1.35,1.965,1.965,0,0,0-1.494-.531h-1.98V-6.1Zm6.372-5.58h7.524v1.836h-5.4v3.078h5.058v1.836H-119.3v3.078h5.4V0h-7.524ZM-102.186-8.1a3.305,3.305,0,0,1-.7,2.124A3.658,3.658,0,0,1-104.9-4.752L-101.772,0h-2.772l-2.574-4.554h-1.62V0h-2.124V-11.682h4.32a4.791,4.791,0,0,1,3.222.99A3.21,3.21,0,0,1-102.186-8.1Zm-4.554,2.124a2.573,2.573,0,0,0,1.764-.531,1.792,1.792,0,0,0,.594-1.4,1.881,1.881,0,0,0-.54-1.4,2.223,2.223,0,0,0-1.62-.531h-2.2v3.87Zm5.9-5.706h9.36v1.836h-3.618V0h-2.124V-9.846h-3.618Zm19.89-.234a6,6,0,0,1,1.872.261,4.258,4.258,0,0,1,1.368.729A4.3,4.3,0,0,1-76.23-8.352l-2.268.414a3.378,3.378,0,0,0-.891-1.485,2.109,2.109,0,0,0-1.5-.567,2.348,2.348,0,0,0-1.98,1.026,5.17,5.17,0,0,0-.81,3.087,5.616,5.616,0,0,0,.72,3.078A2.231,2.231,0,0,0-81-1.692a2.611,2.611,0,0,0,1.872-.6,2.059,2.059,0,0,0,.63-1.557h2.286A3.775,3.775,0,0,1-77.463-.819,5.1,5.1,0,0,1-80.892.252a4.58,4.58,0,0,1-3.69-1.62,6.793,6.793,0,0,1-1.386-4.5,6.593,6.593,0,0,1,1.422-4.5A4.572,4.572,0,0,1-80.946-11.916Zm7.2.234h7.524v1.836h-5.4v3.078h5.058v1.836h-5.058v3.078h5.4V0h-7.524ZM-54.5-8.1a3.305,3.305,0,0,1-.7,2.124,3.658,3.658,0,0,1-2.016,1.224L-54.09,0h-2.772l-2.574-4.554h-1.62V0H-63.18V-11.682h4.32a4.791,4.791,0,0,1,3.222.99A3.21,3.21,0,0,1-54.5-8.1Zm-4.554,2.124a2.573,2.573,0,0,0,1.764-.531,1.792,1.792,0,0,0,.594-1.4,1.881,1.881,0,0,0-.54-1.4,2.223,2.223,0,0,0-1.62-.531h-2.2v3.87Zm5.9-5.706h9.36v1.836h-3.618V0h-2.124V-9.846h-3.618Zm11.142,0h2.124V0h-2.124Zm5.472,0h7.362v1.836h-5.238v3.078h4.788V-4.95h-4.788V0H-36.54Zm9.846,0h2.124V0h-2.124Zm5.454,0h7.524v1.836h-5.4v3.078h5.058v1.836h-5.058v3.078h5.4V0H-21.24Zm14.346,0a5.927,5.927,0,0,1,4.3,1.584A5.626,5.626,0,0,1-.936-5.832,5.6,5.6,0,0,1-2.592-1.584,5.927,5.927,0,0,1-6.894,0h-3.8V-11.682ZM-8.55-1.926h1.656A3.473,3.473,0,0,0-4.212-3.042a4.012,4.012,0,0,0,.972-2.79,4.064,4.064,0,0,0-.972-2.826,3.466,3.466,0,0,0-2.682-1.1H-8.55Z" transform="translate(-7816 -2409)" fill="#fff"/>
  </g>
</svg>
