<svg xmlns="http://www.w3.org/2000/svg" width="80" height="77.734" viewBox="0 0 80 77.734">
  <g id="On_time" data-name="On time" transform="translate(-933.334 -1426)">
    <rect id="Rectangle_608" data-name="Rectangle 608" width="55" height="55" transform="translate(972.143 1426) rotate(43)" fill="#ffc42e"/>
    <path id="Union_20" data-name="Union 20" d="M25.375,27.313A27.313,27.313,0,1,1,52.688,54.627,27.307,27.307,0,0,1,25.375,27.313ZM54.121,46.027v5.479a24.329,24.329,0,0,0,14.5-5.984L64.74,41.643a1.548,1.548,0,0,1,2.191-2.187l3.879,3.873a23.491,23.491,0,0,0,6.07-14.5H71.4a1.519,1.519,0,0,1,0-3.037h5.48A24.536,24.536,0,0,0,54.205,3.037V8.432a1.518,1.518,0,0,1-3.035,0V3.037A23.874,23.874,0,0,0,36.756,9.021l3.791,3.795a1.578,1.578,0,0,1,0,2.191,1.806,1.806,0,0,1-1.093.422,1.4,1.4,0,0,1-1.1-.422l-3.789-3.793a23.952,23.952,0,0,0-6.07,14.412h5.4a1.66,1.66,0,0,1,1.6,1.6,1.513,1.513,0,0,1-1.519,1.518h-5.4a24.028,24.028,0,0,0,5.9,14.5l3.873-3.873a1.549,1.549,0,0,1,2.193,2.188l-3.879,3.879a23.771,23.771,0,0,0,14.418,6.068V46.027a1.518,1.518,0,1,1,3.035,0ZM4.807,43.244a1.516,1.516,0,1,1,0-3.031H20.821a1.516,1.516,0,1,1,0,3.031ZM49.568,30.35a4.274,4.274,0,0,1,4.8-6.914l9.439-9.443A1.551,1.551,0,0,1,66,16.188l-9.438,9.439a4.3,4.3,0,0,1-7,4.723ZM1.518,28.832a1.519,1.519,0,0,1,0-3.037H17.533a1.519,1.519,0,0,1,0,3.037ZM4.807,14.414a1.518,1.518,0,1,1,0-3.035H20.821A1.464,1.464,0,0,1,22.34,12.9a1.508,1.508,0,0,1-1.519,1.514Z" transform="translate(933.334 1438)" fill="#112327"/>
  </g>
</svg>
