<svg xmlns="http://www.w3.org/2000/svg" width="77.734" height="80" viewBox="0 0 77.734 80">
  <g id="payment" transform="translate(-716.633 -1425)">
    <rect id="Rectangle_606" data-name="Rectangle 606" width="55" height="55" transform="translate(754.143 1426) rotate(43)" fill="#ffc42e"/>
    <path id="Union_22" data-name="Union 22" d="M1.332,80A1.328,1.328,0,0,1,0,78.667V68a1.328,1.328,0,0,1,1.332-1.332H2.665V36.881a6.723,6.723,0,0,1,1.95-4.717L10.7,26.087A26.692,26.692,0,1,1,33.334,53.022V56A6.689,6.689,0,0,1,28,62.537v4.135h2.667A1.328,1.328,0,0,1,32,68V78.667A1.328,1.328,0,0,1,30.668,80Zm1.332-2.665h26.67v-8H2.665ZM6.5,34.054a3.988,3.988,0,0,0-1.173,2.828v29.79h20V61.332A1.338,1.338,0,0,1,26.669,60a4,4,0,0,0,4-4V52.471a26.6,26.6,0,0,1-9.015-4.238l-.317.316V52a6.672,6.672,0,0,1-6.672,6.662V56a4,4,0,0,0,4.005-4V48a1.3,1.3,0,0,1,.4-.932L25.6,40.535a3.994,3.994,0,0,0-.008-5.668l-.932-.938-5.688,5.683a1.332,1.332,0,0,1-.945.388h-3a1.336,1.336,0,0,1-1.171-.691A26.667,26.667,0,0,1,10.848,29.7Zm20.974,8.352-3.916,3.919a24.006,24.006,0,1,0-7.726-8.99h1.639l4.937-4.945a15.739,15.739,0,0,1-1.078-5.724A16,16,0,1,1,28.9,40.25,6.577,6.577,0,0,1,27.479,42.405Zm6.766-28.733A13.345,13.345,0,0,0,24,26.666a13.128,13.128,0,0,0,.838,4.617,2.625,2.625,0,0,1,1.7.76l.938.932a6.759,6.759,0,0,1,1.933,4.41,13.353,13.353,0,1,0,4.833-23.713ZM24.83,74.564a1.632,1.632,0,0,1-.444-.285,1.35,1.35,0,0,1,0-1.892,1.546,1.546,0,0,1,.444-.278,1.343,1.343,0,0,1,1.45.278,1.386,1.386,0,0,1,.283.438,1.452,1.452,0,0,1,.106.513,1.332,1.332,0,0,1-1.334,1.332A1.364,1.364,0,0,1,24.83,74.564ZM36,48V45.333h2.667V48Zm9.509-4.5,2.312-1.332,1.332,2.312-2.31,1.332Zm7.322-6.343,1.332-2.308,2.312,1.333-1.334,2.308ZM36,34.67V33.337a4,4,0,0,1-4-4h2.667A1.333,1.333,0,0,0,36,30.669h2.667a1.332,1.332,0,1,0,0-2.665H36A4,4,0,0,1,36,20V18.664h2.667V20a4,4,0,0,1,4,4H40a1.334,1.334,0,0,0-1.333-1.332H36a1.332,1.332,0,1,0,0,2.665h2.667a4,4,0,0,1,0,8.008V34.67ZM56,28V25.33h2.667V28ZM16,28V25.33h2.671V28ZM52.832,16.178l2.31-1.332,1.334,2.308-2.312,1.332Zm-34.64.976,1.332-2.308,2.312,1.332L20.5,18.486Zm7.321-8.292,2.31-1.332,1.334,2.308-2.31,1.336Zm20,.973,1.334-2.312,2.31,1.332-1.332,2.312ZM36,8V5.333h2.667V8Z" transform="translate(723.269 1425)" fill="#112327"/>
  </g>
</svg>
