<svg xmlns="http://www.w3.org/2000/svg" width="79.997" height="79.979" viewBox="0 0 79.997 79.979">
  <g id="Qualityq" transform="translate(-832.654 -1425)">
    <rect id="Rectangle_607" data-name="Rectangle 607" width="55" height="55" transform="translate(871.143 1426) rotate(43)" fill="#ffc42e"/>
    <path id="Union_21" data-name="Union 21" d="M38.987,79.553,37.861,78.4a9.615,9.615,0,0,0-10.595-2.107l-1.485.639a1.423,1.423,0,0,1-1.1.008,1.387,1.387,0,0,1-.768-.779l-.6-1.492a9.609,9.609,0,0,0-8.876-6.012,1.042,1.042,0,0,0-.108,0l-1.605.018a1.441,1.441,0,0,1-1.014-.418,1.4,1.4,0,0,1-.409-1.014l.017-1.605a9.617,9.617,0,0,0-6.015-8.984l-1.489-.592a1.419,1.419,0,0,1-.775-1.869l.638-1.48a9.6,9.6,0,0,0-2.1-10.594L.426,40.988A1.4,1.4,0,0,1,0,39.979a1.419,1.419,0,0,1,.426-1.01l1.151-1.125a9.615,9.615,0,0,0,2.1-10.6l-.638-1.48a1.426,1.426,0,0,1,0-1.1,1.443,1.443,0,0,1,.779-.771l1.493-.6a9.608,9.608,0,0,0,6.011-8.98L11.3,12.713a1.423,1.423,0,0,1,.413-1.018,1.076,1.076,0,0,1,1.014-.414l1.605.021A9.514,9.514,0,0,0,23.32,5.287l.6-1.488a1.387,1.387,0,0,1,.768-.779,1.424,1.424,0,0,1,1.1.008l1.485.633a9.606,9.606,0,0,0,10.595-2.1L38.987.408a1.451,1.451,0,0,1,2.019,0l1.126,1.15a9.611,9.611,0,0,0,10.595,2.1l1.489-.633a1.414,1.414,0,0,1,1.093-.008,1.394,1.394,0,0,1,.771.779l.6,1.492a9.613,9.613,0,0,0,8.876,6.016h.1l1.609-.021a1.477,1.477,0,0,1,1.014.414,1.4,1.4,0,0,1,.413,1.018l-.017,1.605a9.608,9.608,0,0,0,6.011,8.98l1.489.6a1.413,1.413,0,0,1,.775,1.865l-.634,1.48a9.613,9.613,0,0,0,2.1,10.6l1.151,1.125a1.4,1.4,0,0,1,0,2.02l-1.151,1.131a9.6,9.6,0,0,0-2.1,10.594l.638,1.48a1.426,1.426,0,0,1,0,1.1,1.411,1.411,0,0,1-.779.768l-1.489.6a9.617,9.617,0,0,0-6.011,8.984l.013,1.615a1.4,1.4,0,0,1-.413,1.008,2.142,2.142,0,0,1-1.014.418l-1.605-.025h-.1a9.613,9.613,0,0,0-8.876,6.016l-.6,1.488a1.424,1.424,0,0,1-.771.779,1.441,1.441,0,0,1-1.1,0L52.73,76.3a9.589,9.589,0,0,0-10.6,2.1l-1.126,1.154a1.409,1.409,0,0,1-2.019,0Zm.893-3.123.116.121.117-.121A12.439,12.439,0,0,1,53.84,73.705l.155.068.058-.15A12.711,12.711,0,0,1,65.69,65.836h.162l0-.164a12.468,12.468,0,0,1,7.787-11.637l.155-.059-.071-.154A12.451,12.451,0,0,1,76.443,40.1l.121-.121-.121-.117a12.453,12.453,0,0,1-2.72-13.727l.067-.154-.15-.059a12.463,12.463,0,0,1-7.792-11.637l0-.158h-.3a12.463,12.463,0,0,1-11.5-7.787L54,6.189l-.155.066A12.465,12.465,0,0,1,40.113,3.531L40,3.41l-.116.121A12.464,12.464,0,0,1,26.152,6.256L26,6.189l-.059.145A12.315,12.315,0,0,1,14.3,14.123H14.14l0,.162A12.46,12.46,0,0,1,6.356,25.922l-.149.059.066.154A12.455,12.455,0,0,1,3.55,39.861l-.121.117.121.121A12.448,12.448,0,0,1,6.273,53.822l-.066.154.146.059A12.446,12.446,0,0,1,14.14,65.672v.164H14.3A12.455,12.455,0,0,1,25.94,73.619l.058.148.154-.066a12.258,12.258,0,0,1,4.839-.988A12.445,12.445,0,0,1,39.88,76.43ZM9.527,39.979A30.469,30.469,0,1,1,40,70.447,30.5,30.5,0,0,1,9.527,39.979Zm2.819,0A27.648,27.648,0,1,0,40,12.328,27.679,27.679,0,0,0,12.347,39.979ZM50.262,56.742l-10.369-5.7L29.314,56.357A1.408,1.408,0,0,1,27.3,54.836l2.215-11.629-8.321-8.414a1.412,1.412,0,0,1,.825-2.393l11.742-1.486L39.188,20.4a1.367,1.367,0,0,1,1.28-.764,1.4,1.4,0,0,1,1.247.809l5.047,10.707,11.68,1.918a1.411,1.411,0,0,1,.733,2.42L50.55,43.6l1.789,11.7a1.416,1.416,0,0,1-.588,1.367,1.4,1.4,0,0,1-.81.256A1.376,1.376,0,0,1,50.262,56.742ZM40.6,48.213,49.114,52.9,47.65,43.287a1.42,1.42,0,0,1,.43-1.244l7.078-6.652-9.589-1.572a1.412,1.412,0,0,1-1.047-.793L40.38,24.232l-4.458,8.639a1.415,1.415,0,0,1-1.076.75l-9.64,1.219,6.832,6.912a1.406,1.406,0,0,1,.384,1.254L30.6,52.555l8.684-4.363a1.428,1.428,0,0,1,.635-.154A1.452,1.452,0,0,1,40.6,48.213Z" transform="translate(832.654 1425)" fill="#112327"/>
  </g>
</svg>
