<?xml version="1.0" encoding="utf-8"?>
<!-- Generator: Adobe Illustrator 23.0.0, SVG Export Plug-In . SVG Version: 6.00 Build 0)  -->
<svg version="1.1" id="Capa_1" xmlns="http://www.w3.org/2000/svg" xmlns:xlink="http://www.w3.org/1999/xlink" x="0px" y="0px"
	 viewBox="0 0 512 512" style="enable-background:new 0 0 512 512;" xml:space="preserve">
<style type="text/css">
	.st0{fill:#F15A29;}
</style>
<g>
	<g>
		<g>
			<path class="st0" d="M225.3,259.5c72.1,0,98-72.2,104.8-131.5C338.5,55,303.9,0,225.3,0c-78.6,0-113.2,55-104.8,128
				C127.2,187.3,153.2,259.5,225.3,259.5z"/>
			<path class="st0" d="M382.9,289.6c2.3,0,4.6,0.1,6.9,0.2c-3.4-4.9-7.4-9.2-12-12.7c-13.9-10.3-31.8-13.7-47.7-20
				c-7.7-3-14.6-6-21.1-9.5c-21.9,24-50.5,36.6-83.7,36.6c-33.3,0-61.8-12.6-83.7-36.6c-6.5,3.4-13.4,6.4-21.1,9.5
				c-15.9,6.2-33.8,9.6-47.7,20c-24,17.9-30.2,58.1-35,85.6c-4,22.7-6.7,45.8-7.5,68.8c-0.6,17.8,8.2,20.3,23.1,25.7
				c18.7,6.7,37.9,11.7,57.4,15.8c37.5,7.9,76.1,14,114.6,14.3c18.6-0.1,37.3-1.6,55.9-4c-13.7-19.9-21.8-44-21.8-70
				C259.3,345,314.8,289.6,382.9,289.6z"/>
			<path class="st0" d="M382.9,314.3c-54.6,0-98.9,44.3-98.9,98.9s44.3,98.9,98.9,98.9s98.9-44.3,98.9-98.9
				C481.8,358.5,437.5,314.3,382.9,314.3z M426.2,430.1h-26.3v26.3c0,9.4-7.6,17-17,17c-9.4,0-17-7.6-17-17v-26.3h-26.3
				c-9.4,0-17-7.6-17-17c0-9.4,7.6-17,17-17H366v-26.3c0-9.4,7.6-17,17-17c9.4,0,17,7.6,17,17v26.3h26.3c9.4,0,17,7.6,17,17
				C443.1,422.5,435.5,430.1,426.2,430.1z"/>
		</g>
	</g>
</g>
</svg>
