<?xml version="1.0" encoding="utf-8"?>
<!-- Generator: Adobe Illustrator 23.0.0, SVG Export Plug-In . SVG Version: 6.00 Build 0)  -->
<svg version="1.1" id="Layer_1" xmlns="http://www.w3.org/2000/svg" xmlns:xlink="http://www.w3.org/1999/xlink" x="0px" y="0px"
	 viewBox="0 0 512 512" style="enable-background:new 0 0 512 512;" xml:space="preserve">
<style type="text/css">
	.st0{fill:#F15A29;}
</style>
<g>
	<path class="st0" d="M316,211c0-33.1-26.9-60-60-60s-60,26.9-60,60s26.9,60,60,60S316,244.1,316,211z M256,241
		c-16.5,0-30-13.5-30-30s13.5-30,30-30s30,13.5,30,30S272.5,241,256,241z"/>
	<path class="st0" d="M452,392c-11.1,0-21.5,3-30.5,8.3l-38.8-38.8C406.6,332.9,421,296.1,421,256s-14.4-76.9-38.3-105.5l38.8-38.8
		c8.9,5.3,19.3,8.3,30.5,8.3c33.1,0,60-26.9,60-60S485.1,0,452,0s-60,26.9-60,60c0,11.1,3,21.5,8.3,30.5l-38.8,38.8
		C332.9,105.4,296.1,91,256,91s-76.9,14.4-105.5,38.3l-38.8-38.8C117,81.5,120,71.1,120,60c0-33.1-26.9-60-60-60S0,26.9,0,60
		s26.9,60,60,60c11.1,0,21.5-3,30.5-8.3l38.8,38.8C105.4,179.1,91,215.9,91,256s14.4,76.9,38.3,105.5l-38.8,38.8
		C81.5,395,71.1,392,60,392c-33.1,0-60,26.9-60,60s26.9,60,60,60s60-26.9,60-60c0-11.1-3-21.5-8.3-30.5l38.8-38.8
		C179.2,406.7,216,421,256,421c37.6,0,75-12.8,105.5-38.3l38.8,38.8c-5.3,8.9-8.3,19.3-8.3,30.5c0,33.1,26.9,60,60,60s60-26.9,60-60
		S485.1,392,452,392z M452,30c16.5,0,30,13.5,30,30s-13.5,30-30,30s-30-13.5-30-30S435.5,30,452,30z M30,60c0-16.5,13.5-30,30-30
		s30,13.5,30,30S76.5,90,60,90S30,76.5,30,60z M256,121c74.4,0,135,60.6,135,135c0,39.9-17.4,75.9-45.1,100.6
		C343.6,309,304.2,271,256,271s-87.6,38-89.9,85.6C138.4,331.9,121,295.9,121,256C121,181.6,181.6,121,256,121z M60,482
		c-16.5,0-30-13.5-30-30s13.5-30,30-30s30,13.5,30,30S76.5,482,60,482z M196,376.9V361c0-33.1,26.9-60,60-60s60,26.9,60,60v15.9
		c-18.1,9-38.5,14.1-60,14.1S214.1,385.9,196,376.9z M452,482c-16.5,0-30-13.5-30-30s13.5-30,30-30s30,13.5,30,30S468.5,482,452,482
		z"/>
</g>
</svg>
