<?xml version="1.0" encoding="utf-8"?>
<!-- Generator: Adobe Illustrator 23.0.0, SVG Export Plug-In . SVG Version: 6.00 Build 0)  -->
<svg version="1.1" id="Layer_1" xmlns="http://www.w3.org/2000/svg" xmlns:xlink="http://www.w3.org/1999/xlink" x="0px" y="0px"
	 viewBox="0 0 512 512" style="enable-background:new 0 0 512 512;" xml:space="preserve">
<style type="text/css">
	.st0{fill:#F15A29;}
	.st1{opacity:8.000000e-02;}
	.st2{fill:#FEC29E;}
	.st3{fill:#FFFFFF;}
	.st4{fill:#006775;}
</style>
<circle class="st0" cx="256" cy="255.9" r="255.9"/>
<path class="st1" d="M236.7,511.3L92.5,367.1L198,322.3l122.4-118.9l12.5-92.8l177.2,177.2C494.4,414.1,386.7,512,256.1,512
	C249.6,512,243.1,511.8,236.7,511.3z"/>
<path class="st2" d="M226.3,230c4.3-8.7,15.1-26.2,37.9-39.5c31.9-18.5,43.5-59.2,45.1-70.5c1.6-11.4,28.9-24.8,32.2,12
	s-19.1,61.8-19.1,61.8h77.4c23.7-3.3,27.4,35.4,4.2,35.8l-7.4,0.1l-0.2,2h4.5c18.8,0,18.8,36.9,0,36.9h-0.9
	c14.1,4.7,13.2,36.1-4.3,36.1h-5v0.1c11.9,2.6,10.7,13.7,10.7,23c0,15.6-40.5,23.8-50.7,26.6c-29.4,8-68.1-0.9-101.1-3.9l-20.7-2.4
	h-45.2V230h42.7H226.3z"/>
<path class="st3" d="M168.2,221.7h52.2v134.9h-52.2L168.2,221.7L168.2,221.7z"/>
<path class="st4" d="M92.5,211.1h93.1v156H92.5V211.1z"/>
</svg>
